# xmcd
#
# Track frame offsets:
#	150
#	20361
#	41374
#	64258
#	85955
#	108785
#	131650
#	156180
#	175512
#	199400
#	219367
#
# Disc length: 3195 seconds
#
# Revision: 0
# Processed by: cddbd v1.4PL0 Copyright (c) Steve Scherf et al.
# Submitted via: dBpowerAMP V4.0
#
DISCID=8d0c790b
DTITLE=Domingo Quiñonez - Derechos Reservados
DYEAR=1900
DGENRE=Tropical
TTITLE0=Solo con mirarte
TTITLE1=Haciendo el amor sin amor
TTITLE2=Nos sobró la ropa, (versión salsa)
TTITLE3=Algo de mi
TTITLE4=Cuando yo olvido, yo olvido
TTITLE5=A que no te atreves
TTITLE6=Tremendo Cubán-Oriete
TTITLE7=Un soneo
TTITLE8=Los acasos
TTITLE9=Entiéndelo
TTITLE10=Nos sobró la ropa, (versión balada)
EXTD=
EXTT0=
EXTT1=
EXTT2=
EXTT3=
EXTT4=
EXTT5=
EXTT6=
EXTT7=
EXTT8=
EXTT9=
EXTT10=
PLAYORDER=
